<svg width="25" height="25" viewBox="0 0 25 25" fill="none" xmlns="http://www.w3.org/2000/svg">
<path d="M8 21.6667C6.45411 21.6603 5.09326 20.6462 4.645 19.1667H2.5V17.1667H4.645C5.1599 15.4397 6.90204 14.386 8.6707 14.7318C10.4394 15.0776 11.6563 16.7099 11.4828 18.5037C11.3094 20.2974 9.80215 21.6663 8 21.6667ZM8 16.6667C7.17157 16.6667 6.5 17.3383 6.5 18.1667C6.5 18.9952 7.17157 19.6667 8 19.6667C8.82843 19.6667 9.5 18.9952 9.5 18.1667C9.5 17.3383 8.82843 16.6667 8 16.6667ZM22.5 19.1667H12.5V17.1667H22.5V19.1667ZM17 15.6667C15.1979 15.6663 13.6906 14.2974 13.5172 12.5037C13.3437 10.7099 14.5606 9.07759 16.3293 8.73178C18.098 8.38598 19.8401 9.43972 20.355 11.1667H22.5V13.1667H20.355C19.9067 14.6462 18.5459 15.6603 17 15.6667ZM17 10.6667C16.1716 10.6667 15.5 11.3383 15.5 12.1667C15.5 12.9952 16.1716 13.6667 17 13.6667C17.8284 13.6667 18.5 12.9952 18.5 12.1667C18.5 11.3383 17.8284 10.6667 17 10.6667ZM12.5 13.1667H2.5V11.1667H12.5V13.1667ZM10 9.66674C8.19785 9.66628 6.69063 8.29745 6.51715 6.50367C6.34367 4.70989 7.56064 3.07759 9.3293 2.73178C11.098 2.38598 12.8401 3.43972 13.355 5.16674H22.5V7.16674H13.355C12.9065 8.64603 11.5458 9.65995 10 9.66674ZM10 4.66674C9.18198 4.66785 8.51568 5.32417 8.50223 6.14208C8.48878 6.96 9.13315 7.63787 9.95069 7.66586C10.7682 7.69386 11.4575 7.06166 11.5 6.24474V6.53474V6.16674C11.5 5.33832 10.8284 4.66674 10 4.66674ZM5.5 7.16674H2.5V5.16674H5.5V7.16674Z" fill="#9B9B9B"/>
</svg>
