<svg width="25" height="25" viewBox="0 0 25 25" fill="none" xmlns="http://www.w3.org/2000/svg">
<g clip-path="url(#clip0_30_3919)">
<path d="M16 14.1667H15.21L14.93 13.8967C15.91 12.7567 16.5 11.2767 16.5 9.66669C16.5 6.07669 13.59 3.16669 10 3.16669C6.41 3.16669 3.5 6.07669 3.5 9.66669C3.5 13.2567 6.41 16.1667 10 16.1667C11.61 16.1667 13.09 15.5767 14.23 14.5967L14.5 14.8767V15.6667L19.5 20.6567L20.99 19.1667L16 14.1667ZM10 14.1667C7.51 14.1667 5.5 12.1567 5.5 9.66669C5.5 7.17669 7.51 5.16669 10 5.16669C12.49 5.16669 14.5 7.17669 14.5 9.66669C14.5 12.1567 12.49 14.1667 10 14.1667Z" fill="#9B9B9B"/>
</g>
<defs>
<clipPath id="clip0_30_3919">
<rect width="24" height="24" fill="white" transform="translate(0.5 0.166687)"/>
</clipPath>
</defs>
</svg>
