<svg width="25" height="25" viewBox="0 0 25 25" fill="none" xmlns="http://www.w3.org/2000/svg">
<g clip-path="url(#clip0_30_3923)">
<path d="M12.5 2.16669C8.63 2.16669 5.5 5.29669 5.5 9.16669C5.5 14.4167 12.5 22.1667 12.5 22.1667C12.5 22.1667 19.5 14.4167 19.5 9.16669C19.5 5.29669 16.37 2.16669 12.5 2.16669ZM7.5 9.16669C7.5 6.40669 9.74 4.16669 12.5 4.16669C15.26 4.16669 17.5 6.40669 17.5 9.16669C17.5 12.0467 14.62 16.3567 12.5 19.0467C10.42 16.3767 7.5 12.0167 7.5 9.16669Z" fill="#9B9B9B"/>
<path d="M12.5 11.6667C13.8807 11.6667 15 10.5474 15 9.16669C15 7.78597 13.8807 6.66669 12.5 6.66669C11.1193 6.66669 10 7.78597 10 9.16669C10 10.5474 11.1193 11.6667 12.5 11.6667Z" fill="#9B9B9B"/>
</g>
<defs>
<clipPath id="clip0_30_3923">
<rect width="24" height="24" fill="white" transform="translate(0.5 0.166687)"/>
</clipPath>
</defs>
</svg>
