<svg width="27" height="27" viewBox="0 0 27 27" fill="none" xmlns="http://www.w3.org/2000/svg">
<g clip-path="url(#clip0_30_3938)">
<path d="M12.1666 21.6667H14.8333V19H12.1666V21.6667ZM13.5 0.333374C6.13996 0.333374 0.166626 6.30671 0.166626 13.6667C0.166626 21.0267 6.13996 27 13.5 27C20.86 27 26.8333 21.0267 26.8333 13.6667C26.8333 6.30671 20.86 0.333374 13.5 0.333374ZM13.5 24.3334C7.61996 24.3334 2.83329 19.5467 2.83329 13.6667C2.83329 7.78671 7.61996 3.00004 13.5 3.00004C19.38 3.00004 24.1666 7.78671 24.1666 13.6667C24.1666 19.5467 19.38 24.3334 13.5 24.3334ZM13.5 5.66671C10.5533 5.66671 8.16663 8.05337 8.16663 11H10.8333C10.8333 9.53337 12.0333 8.33337 13.5 8.33337C14.9666 8.33337 16.1666 9.53337 16.1666 11C16.1666 13.6667 12.1666 13.3334 12.1666 17.6667H14.8333C14.8333 14.6667 18.8333 14.3334 18.8333 11C18.8333 8.05337 16.4466 5.66671 13.5 5.66671Z" fill="#9B9B9B"/>
</g>
<defs>
<clipPath id="clip0_30_3938">
<rect width="26.6667" height="26.6667" fill="white" transform="translate(0.166626 0.333374)"/>
</clipPath>
</defs>
</svg>
