<svg width="25" height="25" viewBox="0 0 25 25" fill="none" xmlns="http://www.w3.org/2000/svg">
<path d="M10.51 21.1767C10.51 22.2767 11.4 23.1667 12.5 23.1667C13.6 23.1667 14.49 22.2767 14.49 21.1767H10.51ZM12.5 6.16675C15.26 6.16675 17.5 8.40675 17.5 11.1667V18.1667H7.5V11.1667C7.5 8.40675 9.74 6.16675 12.5 6.16675ZM12.5 1.66675C11.67 1.66675 11 2.33675 11 3.16675V4.33675C7.86 5.01675 5.5 7.81675 5.5 11.1667V17.1667L3.5 19.1667V20.1667H21.5V19.1667L19.5 17.1667V11.1667C19.5 7.81675 17.14 5.01675 14 4.33675V3.16675C14 2.33675 13.33 1.66675 12.5 1.66675ZM11.5 8.16675H13.5V12.1667H11.5V8.16675ZM11.5 14.1667H13.5V16.1667H11.5V14.1667Z" fill="#9B9B9B"/>
</svg>
