<svg width="64" height="47" viewBox="0 0 64 47" fill="none" xmlns="http://www.w3.org/2000/svg">
<path d="M13.3178 10.2857L13.3178 22.6473L2.61228 16.4665L13.3178 10.2857Z" fill="#DEDEDE"/>
<path d="M25.4927 17.0029L25.4927 29.3645L14.7872 23.1837L25.4927 17.0029Z" fill="#DEDEDE"/>
<path d="M37.6676 10.2857L37.6676 22.6473L26.9621 16.4665L37.6676 10.2857Z" fill="#DEDEDE"/>
<path d="M49.8426 17.0029L49.8426 29.3645L39.1371 23.1837L49.8426 17.0029Z" fill="#DEDEDE"/>
<path d="M49.8426 3.5685L49.8426 15.9302L39.1371 9.74933L49.8426 3.5685Z" fill="#DEDEDE"/>
<path d="M37.6676 23.7201L37.6676 36.0817L26.9621 29.9009L37.6676 23.7201Z" fill="#DEDEDE"/>
<path d="M49.8426 30.4372L49.8426 42.7989L39.1371 36.6181L49.8426 30.4372Z" fill="#DEDEDE"/>
<path d="M14.1574 22.6473L14.1574 10.2857L24.8629 16.4665L14.1574 22.6473Z" fill="#DEDEDE"/>
<path d="M26.3324 29.3645L26.3324 17.0029L37.0379 23.1837L26.3324 29.3645Z" fill="#DEDEDE"/>
<path d="M38.5073 22.6473L38.5073 10.2857L49.2128 16.4665L38.5073 22.6473Z" fill="#DEDEDE"/>
<path d="M50.6822 15.9302L50.6822 3.56851L61.3877 9.74934L50.6822 15.9302Z" fill="#DEDEDE"/>
<path d="M50.6822 29.3645L50.6822 17.0029L61.3877 23.1837L50.6822 29.3645Z" fill="#DEDEDE"/>
<path d="M38.5073 36.0817L38.5073 23.7201L49.2128 29.9009L38.5073 36.0817Z" fill="#DEDEDE"/>
</svg>
